<svg width="20" height="24" viewBox="0 0 20 24" fill="none" xmlns="http://www.w3.org/2000/svg">
    <path
        d="M18.4539 6.12276C18.9075 5.65988 19.1571 5.04516 19.1571 4.39124C19.1571 3.73733 18.9075 3.12261 18.4539 2.65973L16.5507 0.717588C16.0971 0.254707 15.4947 0 14.8539 0C14.2131 0 13.6107 0.254707 13.1583 0.716363L0.399902 13.6954V19.1018H5.6955L18.4539 6.12276ZM14.8539 2.4491L16.7583 4.39002L14.8503 6.32971L12.9471 4.3888L14.8539 2.4491ZM2.7999 16.6527V14.7118L11.2479 6.11786L13.1511 8.06L4.7043 16.6527H2.7999ZM0.399902 21.5509H19.5999V24H0.399902V21.5509Z"
        fill="currentColor" />
</svg>